<svg width="600" height="400" xmlns="http://www.w3.org/2000/svg">
  <defs>
    <linearGradient id="grad1" x1="0%" y1="0%" x2="100%" y2="100%">
      <stop offset="0%" style="stop-color:#0056b3;stop-opacity:1" />
      <stop offset="100%" style="stop-color:#00c6ff;stop-opacity:1" />
    </linearGradient>
  </defs>
  <rect width="600" height="400" fill="#f0f8ff" rx="20" ry="20" />
  <circle cx="300" cy="200" r="150" fill="url(#grad1)" opacity="0.1" />
  <g transform="translate(150, 100)">
    <!-- Doctor Icon -->
    <path d="M100 20 C100 10, 110 0, 120 0 C130 0, 140 10, 140 20 C140 30, 130 40, 120 40 C110 40, 100 30, 100 20 Z" fill="#0056b3" />
    <path d="M80 100 C80 60, 160 60, 160 100 L160 180 L80 180 Z" fill="#0056b3" />
    <rect x="115" y="60" width="10" height="120" fill="white" opacity="0.3" />
  </g>
  <g transform="translate(300, 120)">
    <!-- Patient Icon -->
    <path d="M100 20 C100 10, 110 0, 120 0 C130 0, 140 10, 140 20 C140 30, 130 40, 120 40 C110 40, 100 30, 100 20 Z" fill="#00c6ff" />
    <path d="M80 100 C80 60, 160 60, 160 100 L160 160 L80 160 Z" fill="#00c6ff" />
  </g>
  <text x="300" y="350" font-family="Arial" font-size="24" text-anchor="middle" fill="#333">Expert Care</text>
</svg>
